<?xml version="1.0" encoding="utf-8"?>
<!-- Generator: Adobe Illustrator 21.0.2, SVG Export Plug-In . SVG Version: 6.00 Build 0)  -->
<svg version="1.1" xmlns="http://www.w3.org/2000/svg" xmlns:xlink="http://www.w3.org/1999/xlink" x="0px" y="0px"
	 viewBox="0 0 744 147" style="enable-background:new 0 0 744 147;" xml:space="preserve">
<style type="text/css">
	.st0{fill:#0A0A0A;}
	.st1{fill:#FF5F4A;}
	.st2{fill:#FFFFFF;}
	.st3{fill:#1D1C1A;}
	.st4{fill:#D13851;}
	.st5{fill:none;stroke:#1D1C1A;stroke-width:3.6;stroke-miterlimit:10;}
	.st6{fill:#D6525F;}
	.st7{fill:none;stroke:#B1B1B1;stroke-miterlimit:10;}
	.st8{fill:none;stroke:#D6525F;stroke-width:3.6;stroke-miterlimit:10;}
	.st9{fill:none;stroke:#D6525F;stroke-width:5;stroke-miterlimit:10;}
	.st10{fill:none;stroke:#FFFFFF;stroke-width:3.6;stroke-miterlimit:10;}
	.st11{fill:#4C68AB;}
	.st12{fill:#F7F0F6;}
	.st13{clip-path:url(#SVGID_2_);}
	.st14{fill:#FEF4E9;}
	.st15{clip-path:url(#SVGID_4_);}
	.st16{clip-path:url(#SVGID_6_);}
	.st17{clip-path:url(#SVGID_8_);}
	.st18{fill:none;stroke:#1D1C1A;stroke-miterlimit:10;}
	.st19{fill:none;stroke:#1D1C1A;stroke-width:0.7;stroke-miterlimit:10;}
	.st20{fill:#2B293B;}
	.st21{fill:none;stroke:#1D1C1A;stroke-width:1.5;stroke-miterlimit:10;}
	.st22{fill:#6BBEB5;}
	.st23{clip-path:url(#SVGID_10_);}
	.st24{clip-path:url(#SVGID_12_);}
	.st25{clip-path:url(#SVGID_14_);}
	.st26{clip-path:url(#SVGID_16_);}
	.st27{fill:#CF4050;}
	.st28{fill:#CE4051;}
	.st29{fill:#FFDF5C;}
	.st30{clip-path:url(#SVGID_18_);}
	.st31{fill:none;stroke:#1D1C1A;stroke-width:1.2084;stroke-miterlimit:10;}
	.st32{fill:#DC3D49;}
	.st33{fill:none;stroke:#1D1C1A;stroke-width:2.5894;stroke-miterlimit:10;}
	.st34{clip-path:url(#SVGID_20_);}
	.st35{fill:#FDF7EF;}
	.st36{clip-path:url(#SVGID_22_);}
	.st37{clip-path:url(#SVGID_24_);}
	.st38{clip-path:url(#SVGID_26_);}
	.st39{fill:#755099;}
	.st40{fill:#76BA7B;}
	.st41{fill:#3E5AA3;}
	.st42{clip-path:url(#SVGID_28_);}
	.st43{fill:#40904F;}
	.st44{fill:#DC4433;}
	.st45{fill:none;stroke:#1D1C1A;stroke-width:0.7616;stroke-miterlimit:10;}
	.st46{fill:#FFFFFF;stroke:#1D1C1A;stroke-width:1.088;stroke-miterlimit:10;}
	.st47{clip-path:url(#SVGID_30_);}
	.st48{clip-path:url(#SVGID_32_);}
	.st49{fill:none;stroke:#FFFFFF;stroke-width:3;stroke-miterlimit:10;}
	.st50{fill:#1D1C1A;stroke:#1D1C1A;stroke-width:0.75;stroke-miterlimit:10;}
	.st51{fill:#1D1C1A;stroke:#1D1C1A;stroke-width:4.4832;stroke-miterlimit:10;}
	.st52{fill:#489F54;}
	.st53{clip-path:url(#SVGID_34_);}
	.st54{clip-path:url(#SVGID_36_);}
	.st55{clip-path:url(#SVGID_38_);}
	.st56{fill:#FFFFFF;stroke:#FFFBF8;stroke-width:2;stroke-miterlimit:10;}
	.st57{fill:none;stroke:#FFFFFF;stroke-width:16;stroke-miterlimit:10;}
	.st58{fill:none;stroke:#DC4433;stroke-width:20;stroke-miterlimit:10;}
	.st59{fill:#DC4433;stroke:#FBFBF2;stroke-width:13;stroke-miterlimit:10;}
	.st60{fill:#DF5835;}
	.st61{clip-path:url(#SVGID_40_);}
	.st62{clip-path:url(#SVGID_42_);}
	.st63{fill:#3C3C3B;}
	.st64{fill:#E9E9E9;}
	.st65{fill:none;stroke:#E9E9E9;stroke-width:0.7336;stroke-miterlimit:10;}
	.st66{fill:none;stroke:#E9E9E9;stroke-width:0.543;stroke-miterlimit:10;}
	.st67{clip-path:url(#SVGID_44_);}
	.st68{fill:#F6F2ED;stroke:#FFFFFF;stroke-miterlimit:10;}
	.st69{fill:#DC3D49;stroke:#DC3D49;stroke-miterlimit:10;}
	.st70{fill:#FFFFFF;stroke:#FFFFFF;stroke-width:1.6252;stroke-miterlimit:10;}
	.st71{fill:#FFFFFF;stroke:#FFFFFF;stroke-width:0.3047;stroke-miterlimit:10;}
	.st72{opacity:0.34;}
	.st73{fill:none;}
	.st74{fill:#F3CCC6;}
	.st75{clip-path:url(#SVGID_46_);}
	.st76{fill:#1D1C1A;stroke:#000000;stroke-width:1.1262;stroke-miterlimit:10;}
	.st77{fill:#E0604B;}
	.st78{clip-path:url(#SVGID_48_);}
	.st79{fill:#FEFEFE;}
	.st80{clip-path:url(#SVGID_50_);}
	.st81{clip-path:url(#SVGID_52_);}
	.st82{fill:#161616;}
	.st83{fill:none;stroke:#000000;stroke-width:5;stroke-miterlimit:10;}
	.st84{fill:#FF604B;}
	.st85{fill:#858485;}
	.st86{fill:none;stroke:#3C3C3B;stroke-miterlimit:10;}
	.st87{fill:none;stroke:#000000;stroke-width:0.9259;stroke-miterlimit:10;}
	.st88{fill:none;stroke:#3C3C3B;stroke-width:0.1852;stroke-miterlimit:10;}
	.st89{fill:#EFE5DD;}
	.st90{fill:none;stroke:#706F6E;stroke-width:3;stroke-miterlimit:10;}
	.st91{fill:none;stroke:#706F6E;stroke-width:4.437;stroke-miterlimit:10;}
	.st92{fill:none;stroke:#E9E9E9;stroke-width:0.4004;stroke-miterlimit:10;}
	.st93{fill:#FFCC3B;}
	.st94{fill:#FFFEFD;}
	.st95{fill:#230505;}
	.st96{opacity:0.34;fill:url(#SVGID_63_);}
	.st97{opacity:0.34;fill:url(#SVGID_64_);}
	.st98{fill:#490A08;}
	.st99{fill:none;stroke:#F7F3EB;stroke-width:0.5664;stroke-miterlimit:10;}
	.st100{opacity:0.36;fill:url(#SVGID_65_);}
	.st101{fill:#F9F2ED;}
	.st102{fill:none;stroke:#8E8686;stroke-width:0.25;stroke-miterlimit:10;}
	.st103{fill:none;stroke:#1D1C1A;stroke-width:0.25;stroke-miterlimit:10;}
	.st104{fill:#FFCC3B;}
	.st105{fill:#380707;}
	.st106{clip-path:url(#SVGID_69_);}
	.st107{clip-path:url(#SVGID_71_);}
	.st108{fill:#232121;}
	.st109{fill:none;stroke:#381D13;stroke-width:0.25;stroke-miterlimit:10;}
	.st110{fill:#382B0F;}
	.st111{fill:#FCF6F2;}
	.st112{opacity:0.36;fill:url(#SVGID_72_);}
	.st113{fill:none;stroke:#F4EEE4;stroke-width:0.5664;stroke-miterlimit:10;}
	.st114{fill:none;stroke:#600E08;stroke-width:0.5;stroke-miterlimit:10;}
	.st115{fill:none;stroke:#490A08;stroke-width:0.25;stroke-miterlimit:10;}
	.st116{clip-path:url(#SVGID_74_);}
	.st117{clip-path:url(#SVGID_76_);}
	.st118{fill:#1F40FF;}
	.st119{fill:#F4F4F4;}
	.st120{fill:#FDFBF9;}
	.st121{opacity:0.34;fill:url(#SVGID_77_);}
	.st122{opacity:0.34;fill:url(#SVGID_78_);}
	.st123{opacity:0.36;fill:url(#SVGID_79_);}
	.st124{fill:#D0D2C7;}
	.st125{clip-path:url(#SVGID_83_);}
	.st126{clip-path:url(#SVGID_85_);}
	.st127{opacity:0.36;fill:url(#SVGID_86_);}
	.st128{clip-path:url(#SVGID_88_);}
	.st129{clip-path:url(#SVGID_90_);}
	.st130{fill:#EE9CB0;}
	.st131{fill:#070707;}
	.st132{fill:#F2EEEB;}
	.st133{clip-path:url(#SVGID_92_);}
	.st134{clip-path:url(#SVGID_94_);}
	.st135{clip-path:url(#SVGID_96_);}
	.st136{clip-path:url(#SVGID_98_);}
	.st137{opacity:0.47;fill:#FF604B;}
	.st138{opacity:0.27;fill:#FF604B;}
	.st139{clip-path:url(#SVGID_100_);}
	.st140{clip-path:url(#SVGID_102_);}
	.st141{clip-path:url(#SVGID_104_);}
	.st142{clip-path:url(#SVGID_106_);}
	.st143{fill:#591911;}
	.st144{clip-path:url(#SVGID_108_);}
	.st145{fill:#FFA1FF;}
	.st146{fill:#F59CB0;}
	.st147{fill:none;stroke:#591911;stroke-width:8;stroke-miterlimit:10;}
	.st148{fill:none;stroke:#591911;stroke-width:9;stroke-miterlimit:10;}
	.st149{fill:none;stroke:#591911;stroke-width:11;stroke-miterlimit:10;}
	.st150{fill:none;stroke:#591911;stroke-width:7;stroke-miterlimit:10;}
	.st151{fill:none;stroke:#591911;stroke-width:10.1;stroke-miterlimit:10;}
	.st152{fill:#FF604B;stroke:#591911;stroke-width:11;stroke-miterlimit:10;}
	.st153{display:none;}
	.st154{display:inline;opacity:0.81;fill:#DC58E0;}
	.st155{display:inline;opacity:0.81;fill:none;stroke:#DC58E0;stroke-width:0.1;stroke-miterlimit:10;}
	.st156{display:inline;opacity:0.42;fill:none;stroke:#AA4D96;stroke-width:0.25;stroke-miterlimit:10;}
</style>
<g id="Layer_2">
</g>
<g id="Layer_1">
	<g>
		<g>
			<path class="st84" d="M107.6,71.7c15.2,0,26.7,11.8,26.7,26.5s-11.5,26.4-26.7,26.4s-26.7-11.7-26.7-26.4S92.4,71.7,107.6,71.7z
				 M107.6,112c7.9,0,13.3-6.2,13.3-13.8s-5.4-13.9-13.3-13.9s-13.3,6.3-13.3,13.9S99.8,112,107.6,112z"/>
			<path class="st84" d="M182,115.7c0,3.9-5,8.9-14,8.9c-7.5,0-14.5-3.4-19-8.6c-3.9-4.6-6.4-10.9-6.4-17.8c0-15,11-26.5,24.7-26.5
				c9.1,0,13.8,4.5,14.2,8.6V49.2H195v74.4h-13V115.7z M181.5,90.5c-2.8-3.8-7.3-6.3-12.4-6.3c-7.9,0-13,6.6-13,13.9
				c0,8,5.7,13.8,13.3,13.8c5.1,0,9.5-2.5,12.1-6.3V90.5z"/>
			<path class="st84" d="M248.3,123.5c-1.8,0.6-5.8,1-8.4,1c-8.1,0-14-2.7-17.4-7.3c-2.6-3.5-3.7-8-3.7-15.2V84.2h-14V72.7h14V58.6
				h13.5v14.1h16.6v11.5h-16.6v19.4c0,3.1,0.5,5,1.7,6.4c1.3,1.6,3.5,2.5,6.8,2.5c2,0,4.6-0.3,5.5-0.5L248.3,123.5z"/>
		</g>
	</g>
	<g>
		<g>
			<path class="st84" d="M535.8,115.6c-4.9,5.9-12.9,9.1-20.6,9.1c-15,0-26.3-10.5-26.3-26.4c0-14.1,9.5-26.5,24.5-26.5
				c13.9,0,23.7,11.8,23.7,26c0,1.4-0.1,2.7-0.3,3.9h-34.8c0.7,7.1,6.4,12,13.6,12c5.7,0,10.3-3.2,12.6-5.9L535.8,115.6z
				 M523.2,91.7c-0.4-4.5-4.5-8.9-10-8.9c-5.6,0-10.2,4.3-10.8,8.9H523.2z"/>
			<path class="st84" d="M568.4,103.9l13.8-31h14l-23.1,50.8h-9.3l-23.1-50.8h14L568.4,103.9z"/>
			<path class="st84" d="M646.2,115.6c-4.9,5.9-12.9,9.1-20.6,9.1c-15,0-26.3-10.5-26.3-26.4c0-14.1,9.5-26.5,24.5-26.5
				c13.9,0,23.7,11.8,23.7,26c0,1.4-0.1,2.7-0.3,3.9h-34.8c0.7,7.1,6.4,12,13.6,12c5.7,0,10.3-3.2,12.6-5.9L646.2,115.6z
				 M633.7,91.7c-0.4-4.5-4.5-8.9-10-8.9c-5.6,0-10.2,4.3-10.8,8.9H633.7z"/>
			<path class="st84" d="M691,72.2l-1.6,12.7c-0.9-0.3-2.9-0.5-4.9-0.5c-5.9,0-10.6,4.3-12.2,7.3v31.9h-13.5V72.9h13v7.9
				c0-4.2,5.6-8.9,14.6-8.9C688.4,71.8,689.5,72,691,72.2z"/>
			<path class="st84" d="M742.3,123.7c-1.8,0.6-5.8,1-8.4,1c-8.1,0-14-2.7-17.4-7.3c-2.6-3.5-3.7-8-3.7-15.2V84.4h-14V72.9h14V58.7
				h13.5v14.1h16.6v11.5h-16.6v19.4c0,3.1,0.5,5,1.7,6.4c1.3,1.6,3.5,2.5,6.8,2.5c2,0,4.6-0.3,5.5-0.5L742.3,123.7z"/>
		</g>
	</g>
	<path class="st84" d="M442.5,96.9c4.1-6.9,6.1-14.1,6.1-22.8c0-13.2-5.3-24-9.3-28.8h15.6c3.8,5.5,7.8,15.4,7.8,29.4
		c0,13-5.9,25.6-8.1,30.9c4.3,4.5,13.6,6.2,18.4,6.2c3.2,0,5.9-0.7,7.9-1.5c0.5,2.3,2.7,12.9,2.7,12.9c-2.8,1.4-7,2.5-12.1,2.5
		c-6.7,0-14.7-1.9-23.7-8c-4.4,5.6-10.9,9.3-19.4,9.3c-10.9,0-18.9-7-18.9-17.2c0-10.3,8.1-17.5,18.9-17.5
		C434.2,92.4,439.4,94.3,442.5,96.9z M436.8,108.9c-2.6-1.7-5.6-3.1-8.3-3.1c-2.9,0-5.1,1.5-5.1,4c0,2.5,2.2,4,5.1,4
		C431,113.8,434,112.8,436.8,108.9z"/>
	<path class="st84" d="M56.2,83c-10.4-0.1-18,7.3-18.1,18.3l-0.2,11.6C24.1,110.5,16,97.9,16,85.6c0-14.9,11.4-27.1,27-26.9
		c6.3,0.1,13.6,3.2,18.4,8.1L71,56.5c-7.1-7.1-16.7-11.4-27.5-11.4c-25,0-41.8,17.3-42.3,40.2c-0.4,21.7,14.5,39.2,36.6,41.2l0,0.3
		c-0.1,1.6-0.6,6.4-7.4,9.3l10.4,8c5.8-2.7,11-11.4,11-18c11.3-3,21.5-13.4,21.7-25.7C73.5,89.9,66.2,83.1,56.2,83z M51.9,111.8
		l0.1-10.1c0.1-4.1,2-5.3,4-5.3c1.9,0,3.5,1.8,3.5,4.2C59.5,106,56.2,109.6,51.9,111.8z"/>
	<path class="st84" d="M275.5,127l12.2-37.2l9.2-28c-6.2-1.2-12-5-15.6-10c-5.4-7.6-7.6-17.2-4.9-26.9c2.3-8.3,7.8-15.2,15.3-19.4
		c4.9-2.7,10.4-4.1,15.9-4.1c6.3-0.1,13.4,2.3,20.6,7.5c7.8-5.3,16.6-6.7,26-4.3c9,2.3,16.7,9,20.6,17.5c4.1-1.1,10.1-0.3,12.9,0.5
		c8.3,2.3,15.2,7.7,19.5,15.3c4.2,7.5,5.3,16.2,2.9,24.5c-2.5,9-9.1,16.5-17.6,20.3c-9.8,4.4-18.7,2.7-23.4,0.1
		c-0.1,1.2-1.5,8.7-3.3,18.1c-3.5,18.6-8.6,44.8-8.6,44.8L275.5,127z M308.2,15.5c-3.2-0.1-6.7,0.9-9.5,2.4
		c-4.3,2.4-7.3,6.3-8.6,10.9c-1.3,4.6-0.7,9.5,1.6,13.7c2.4,4.3,6.2,7.2,10.8,8.8c3.7,1.3,8,1.8,10.8,1.6
		c-1.3,4.2-20.2,63.1-20.2,63.1l53.8,12.4c0,0,12.9-59.6,13.8-63.7c3.3,2.4,16.5,10.3,27.4,4.9c4.4-2.2,7.3-6.3,8.6-10.9
		c1.3-4.7,0.7-9.6-1.7-13.8c-2.4-4.2-6.3-7.3-11-8.6c-1.5-0.4-3.2-0.7-4.8-0.7c-1.1,0-2.2,0.1-3.3,0.3c0.8,5.5-0.6,10.2-3.5,13.3
		c-2.5,2.7-6.1,4.1-10.2,4.1c-6.2,0-11.8-4.6-12.3-11.1c-0.4-4.5,1.7-12.8,12-15.9c-2.7-3.5-6.7-6.7-11.4-8.1
		c-1.6-0.4-3.2-0.7-4.8-0.7c-4,0-8,1.3-11.2,3.7c4.8,4.7,6.3,10.9,4.3,16.1c-1.6,4.3-5.3,7.1-10,7.6c-0.5,0.1-1,0.1-1.5,0.1
		c-4.9,0-9.2-2.8-11.3-7.1c-2.5-5.4-1.1-12.3,3.7-18.5C316.7,16.9,311.4,15.6,308.2,15.5z M327.7,26.5c-2.4,2.8-2.9,4.7-3,6
		c-0.1,1.8,1.1,3.7,3.2,3.8c1.8,0.1,3.1-1.9,2.9-4.1C330.7,31,329.7,29.1,327.7,26.5z M366.8,34.9c-3.3,1-5.1,2.3-5.9,3.3
		c-1,1.3-1.5,3.8,0.2,5.1c1.7,1.3,4.2,0.4,5.1-1.7C366.9,40.2,367.1,38.3,366.8,34.9z"/>
</g>
<g id="Layer_4" class="st153">
</g>
<g id="Layer_3">
</g>
</svg>
